<svg id="Layer_1" data-name="Layer 1" xmlns="http://www.w3.org/2000/svg" viewBox="0 0 354.96 214.81"><defs><style>.cls-1{fill:#f26739;}.cls-2,.cls-3,.cls-4{font-size:78.42px;font-family:AvenirNextCondensed-BoldItalic, Avenir Next Condensed;font-weight:700;font-style:italic;}.cls-2{fill:#9b52a0;stroke-miterlimit:10;stroke-width:0.75px;}.cls-2,.cls-3{stroke:#21409a;}.cls-3,.cls-4{fill:none;}.cls-3{stroke-width:3px;}.cls-4{stroke:#f26522;}</style></defs><title>tipoffLOGOsvg</title><circle class="cls-1" cx="118.3" cy="61.25" r="61.25"/><text class="cls-2" transform="translate(11.5 99.61)">TIP OFF</text><text class="cls-3" transform="translate(11.5 99.61)">TIP OFF</text><text class="cls-4" transform="translate(11.5 99.61)">TIP OFF</text><text class="cls-2" transform="translate(10.5 98.11)">TIP OFF</text><text class="cls-3" transform="translate(10.5 98.11)">TIP OFF</text><text class="cls-4" transform="translate(10.5 98.11)">TIP OFF</text><text class="cls-2" transform="translate(9.5 96.61)">TIP OFF</text><text class="cls-3" transform="translate(9.5 96.61)">TIP OFF</text><text class="cls-4" transform="translate(9.5 96.61)">TIP OFF</text><text class="cls-2" transform="translate(8.5 95.11)">TIP OFF</text><text class="cls-3" transform="translate(8.5 95.11)">TIP OFF</text><text class="cls-4" transform="translate(8.5 95.11)">TIP OFF</text><text class="cls-2" transform="translate(7.5 93.61)">TIP OFF</text><text class="cls-3" transform="translate(7.5 93.61)">TIP OFF</text><text class="cls-4" transform="translate(7.5 93.61)">TIP OFF</text><text class="cls-2" transform="translate(6.5 92.11)">TIP OFF</text><text class="cls-3" transform="translate(6.5 92.11)">TIP OFF</text><text class="cls-4" transform="translate(6.5 92.11)">TIP OFF</text><text class="cls-2" transform="translate(5.5 90.61)">TIP OFF</text><text class="cls-3" transform="translate(5.5 90.61)">TIP OFF</text><text class="cls-4" transform="translate(5.5 90.61)">TIP OFF</text><text class="cls-2" transform="translate(4.5 89.11)">TIP OFF</text><text class="cls-3" transform="translate(4.5 89.11)">TIP OFF</text><text class="cls-4" transform="translate(4.5 89.11)">TIP OFF</text><text class="cls-2" transform="translate(3.5 87.61)">TIP OFF</text><text class="cls-3" transform="translate(3.5 87.61)">TIP OFF</text><text class="cls-4" transform="translate(3.5 87.61)">TIP OFF</text><text class="cls-2" transform="translate(2.5 86.11)">TIP OFF</text><text class="cls-3" transform="translate(2.5 86.11)">TIP OFF</text><text class="cls-4" transform="translate(2.5 86.11)">TIP OFF</text><text class="cls-2" transform="translate(1.5 84.61)">TIP OFF</text><text class="cls-3" transform="translate(1.5 84.61)">TIP OFF</text><text class="cls-4" transform="translate(1.5 84.61)">TIP OFF</text><text x="-51.92" y="-38.13"/></svg>